<?xml version="1.0" encoding="UTF-8"?> <svg xmlns="http://www.w3.org/2000/svg" id="Layer_1" viewBox="0 0 50 50"><defs><style>.cls-1{fill:#faab07;}.cls-2{fill:#eb1923;}.cls-3{fill:#fff;}</style></defs><path class="cls-1" d="M25,43.86c-3.36,0-6.45-1.13-8.44-2.81-1.01,.3-2.3,.79-3.12,1.39-.7,.51-.61,1.04-.48,1.25,.55,.93,9.47,.59,12.04,.3v-.14Zm0,0c3.36,0,6.45-1.13,8.44-2.81,1.01,.3,2.3,.79,3.12,1.39,.7,.51,.61,1.04,.48,1.25-.55,.93-9.47,.59-12.04,.3v-.14Z"></path><path d="M25.02,23.7c5.55-.04,10.01-1.11,11.52-1.53,.36-.1,.55-.27,.55-.27,0-.05,.02-.9,.02-1.34,0-7.42-3.5-14.87-12.11-14.87-8.61,0-12.11,7.45-12.11,14.87,0,.44,.02,1.29,.02,1.34,0,0,.16,.17,.44,.25,1.39,.39,5.93,1.52,11.62,1.56h.04Zm15.09,6.18c-.34-1.11-.81-2.4-1.29-3.64,0,0-.27-.03-.41,0-4.27,1.24-9.45,2.03-13.39,1.98h-.04c-3.92,.05-9.06-.73-13.32-1.96-.16-.05-.48-.03-.48-.03-.48,1.24-.95,2.53-1.29,3.64-1.64,5.28-1.11,7.47-.71,7.52,.87,.11,3.38-3.98,3.38-3.98,0,4.15,3.75,10.52,12.32,10.58h.23c8.58-.06,12.32-6.43,12.32-10.58,0,0,2.51,4.08,3.38,3.98,.4-.05,.94-2.24-.71-7.52"></path><path class="cls-3" d="M21.94,16.65c-1.17,.05-2.17-1.28-2.23-2.97-.06-1.69,.83-3.11,2-3.16,1.17-.05,2.16,1.28,2.23,2.97,.06,1.69-.83,3.11-2,3.16m8.36-2.97c-.06,1.69-1.06,3.02-2.23,2.97-1.17-.05-2.06-1.47-2-3.16,.06-1.69,1.06-3.02,2.23-2.97,1.17,.05,2.06,1.47,2,3.16"></path><path class="cls-1" d="M32.37,19.04c-.31-.69-3.46-1.46-7.35-1.46h-.04c-3.89,0-7.03,.77-7.35,1.46-.01,.03-.02,.06-.02,.1,0,.05,.02,.09,.04,.13,.26,.38,3.75,2.28,7.33,2.28h.04c3.57,0,7.06-1.89,7.33-2.28,.03-.04,.04-.09,.04-.13,0-.03,0-.07-.02-.1"></path><path d="M23.37,13.7c.05,.67-.31,1.26-.82,1.33-.51,.06-.96-.42-1.01-1.09-.05-.67,.31-1.26,.82-1.33,.51-.07,.96,.42,1.01,1.09m3.21,.22c.1-.18,.81-1.16,2.26-.8,.38,.09,.56,.23,.6,.28,.06,.08,.07,.19,.01,.35-.11,.3-.34,.29-.47,.23-.08-.04-1.1-.71-2.03,.29-.06,.07-.18,.09-.29,.01-.11-.08-.15-.25-.09-.37"></path><path class="cls-3" d="M25.02,27.99h-.04c-2.68,.03-5.94-.32-9.09-.94-.27,1.56-.43,3.52-.29,5.86,.35,5.92,3.87,9.63,9.29,9.69h.22c5.42-.05,8.94-3.77,9.29-9.69,.14-2.34-.02-4.3-.29-5.87-3.15,.62-6.4,.98-9.09,.94"></path><g><path class="cls-2" d="M17.38,27.49v5.82s2.67,.54,5.34,.17v-5.37c-1.69-.1-3.52-.31-5.34-.62"></path><path class="cls-2" d="M37.09,21.9s-5.19,1.64-12.07,1.68h-.04c-6.87-.05-12.05-1.68-12.07-1.68l-1.74,4.34c4.35,1.31,9.73,2.15,13.8,2.11h.04c4.07,.05,9.46-.8,13.8-2.11l-1.74-4.34Z"></path></g></svg> 